Coordinates
version=1
nRows=65
nColumns=12
inDegrees=yes

Units are S.I. units (second, meters, Newtons, ...)
Angles are in degrees

endheader
time	SC_y	SC_z	SC_x	AC_y	AC_z	AC_x	GH_y	GH_z	GH_yy	EL_x	PS_y
       0.0              -55.24         -2.179          28.59           67.3         -16.28         -17.93          152.3          29.64         -5.104          115.1          39.58
   0.01541              -55.23         -2.179           28.6           67.3         -16.28         -17.92          152.3          29.64         -5.092          115.1          39.58
   0.03082              -55.23         -2.178           28.6           67.3         -16.28         -17.92          152.3          29.63          -5.08          115.1          39.58
   0.04623              -55.22         -2.178          28.61           67.3         -16.27         -17.91          152.3          29.63         -5.066          115.1          39.58
   0.06163              -55.22         -2.178          28.62          67.29         -16.27         -17.91          152.3          29.63         -5.052          115.0          39.58
   0.07704              -55.21         -2.177          28.63          67.29         -16.27          -17.9          152.3          29.62         -5.037          115.0          39.58
   0.09245              -55.21         -2.177          28.64          67.29         -16.26         -17.89          152.3          29.62         -5.021          115.0          39.58
    0.1079               -55.2         -2.176          28.65          67.28         -16.26         -17.88          152.3          29.61         -5.004          115.0          39.58
    0.1233               -55.2         -2.176          28.66          67.28         -16.26         -17.88          152.3           29.6         -4.985          115.0          39.58
    0.1387              -55.19         -2.175          28.67          67.27         -16.25         -17.87          152.3           29.6         -4.966          115.0          39.58
    0.1541              -55.18         -2.175          28.68          67.27         -16.25         -17.86          152.3          29.59         -4.944          114.9          39.58
    0.1695              -55.18         -2.174           28.7          67.26         -16.25         -17.85          152.3          29.58         -4.922          114.9          39.58
    0.1849              -55.17         -2.174          28.71          67.26         -16.24         -17.84          152.3          29.58         -4.897          114.9          39.58
    0.2003              -55.16         -2.173          28.73          67.25         -16.24         -17.83          152.3          29.57          -4.87          114.9          39.58
    0.2157              -55.15         -2.172          28.74          67.24         -16.23         -17.81          152.3          29.56         -4.841          114.9          39.58
    0.2311              -55.14         -2.171          28.76          67.24         -16.23          -17.8          152.3          29.55          -4.81          114.8          39.58
    0.2465              -55.13         -2.171          28.78          67.23         -16.22         -17.78          152.3          29.54         -4.776          114.8          39.58
    0.2619              -55.12          -2.17           28.8          67.22         -16.21         -17.77          152.3          29.53         -4.739          114.8          39.59
    0.2774              -55.11         -2.169          28.83          67.21         -16.21         -17.75          152.3          29.51         -4.699          114.7          39.59
    0.2928              -55.09         -2.167          28.85           67.2          -16.2         -17.73          152.3           29.5         -4.655          114.7          39.59
    0.3082              -55.08         -2.166          28.88          67.19         -16.19         -17.71          152.3          29.48         -4.606          114.7          39.59
    0.3236              -55.06         -2.165          28.91          67.18         -16.18         -17.69          152.3          29.47         -4.553          114.6          39.59
     0.339              -55.04         -2.163          28.95          67.16         -16.17         -17.66          152.3          29.45         -4.494          114.6          39.59
    0.3544              -55.02         -2.161          28.98          67.15         -16.16         -17.63          152.3          29.43         -4.429          114.5          39.59
    0.3698               -55.0          -2.16          29.03          67.13         -16.14          -17.6          152.3           29.4         -4.356          114.4          39.59
    0.3852              -54.97         -2.157          29.07          67.11         -16.13         -17.57          152.3          29.38         -4.275          114.4           39.6
    0.4006              -54.94         -2.155          29.13          67.09         -16.11         -17.53          152.3          29.35         -4.184          114.3           39.6
     0.416              -54.91         -2.152          29.19          67.07         -16.09         -17.48          152.3          29.32         -4.082          114.2           39.6
    0.4314              -54.87         -2.149          29.25          67.04         -16.07         -17.43          152.4          29.28         -3.966          114.1           39.6
    0.4468              -54.83         -2.146          29.33          67.01         -16.05         -17.37          152.4          29.24         -3.835          114.0          39.61
    0.4623              -54.78         -2.142          29.42          66.97         -16.02         -17.31          152.4          29.19         -3.686          113.9          39.61
    0.4777              -54.73         -2.138          29.52          66.93         -15.99         -17.23          152.4          29.13         -3.514          113.7          39.61
    0.4931              -54.67         -2.133          29.63          66.89         -15.96         -17.14          152.4          29.07         -3.316          113.6          39.62
    0.5085              -54.59         -2.127          29.77          66.83         -15.91         -17.04          152.4           29.0         -3.085          113.4          39.62
    0.5239              -54.51          -2.12          29.93          66.77         -15.86         -16.93          152.4          28.91         -2.816          113.1          39.63
    0.5393              -54.41         -2.111          30.11           66.7         -15.81         -16.79          152.4          28.81         -2.498          112.9          39.64
    0.5547              -54.28         -2.101          30.33          66.61         -15.74         -16.62          152.4          28.69         -2.121          112.5          39.64
    0.5701              -54.14          -2.09           30.6           66.5         -15.66         -16.42          152.4          28.55         -1.668          112.2          39.66
    0.5855              -53.97         -2.075          30.92          66.38         -15.56         -16.18          152.5          28.37         -1.121          111.7          39.67
    0.6009              -53.75         -2.058          31.31          66.22         -15.44         -15.89          152.5          28.16        -0.4517          111.1          39.68
    0.6163              -53.49         -2.037          31.79          66.03         -15.29         -15.53          152.5          27.89         0.3738          110.4           39.7
    0.6318              -53.16          -2.01          32.39          65.79          -15.1         -15.08          152.6          27.56          1.403          109.6          39.73
    0.6472              -52.75         -1.976          33.15          65.48         -14.86         -14.51          152.6          27.15            2.7          108.5          39.75
    0.6626              -52.22         -1.933          34.11           65.1         -14.56         -13.79          152.7          26.62          4.348          107.1          39.79
     0.678              -51.55         -1.878          35.34          64.61         -14.18         -12.86          152.7          25.95          6.458          105.3          39.84
    0.6934              -50.69         -1.808          36.92          63.98         -13.69         -11.68          152.8          25.08          9.166          103.0           39.9
    0.7088              -49.59         -1.718          38.94          63.17         -13.06         -10.16          153.0          23.98          12.62          100.0          39.98
    0.7242               -48.2         -1.605          41.48          62.15         -12.27         -8.256          153.1          22.59          16.97          96.33          40.08
    0.7396              -46.52         -1.467          44.58          60.92         -11.31         -5.934          153.3           20.9          22.27          91.82           40.2
     0.755              -44.56         -1.307          48.16          59.48          -10.2         -3.242          153.6          18.94          28.42           86.6          40.34
    0.7704              -42.44         -1.134          52.05          57.93         -8.992        -0.3281          153.8          16.81          35.07          80.95          40.49
    0.7858              -40.32        -0.9609          55.93          56.38         -7.786          2.586          154.1          14.69          41.72           75.3          40.64
    0.8012              -38.37        -0.8011          59.52          54.95         -6.671          5.278          154.3          12.72          47.86          70.08          40.78
    0.8167              -36.68        -0.6632          62.61          53.71          -5.71          7.599          154.5          11.03          53.16          65.58           40.9
    0.8321              -35.29        -0.5501          65.15          52.69         -4.921          9.505          154.6          9.642          57.51          61.89           41.0
    0.8475              -34.19        -0.4601          67.17          51.89         -4.294          11.02          154.8          8.538          60.97          58.95          41.08
    0.8629              -33.33        -0.3897          68.75          51.26         -3.803          12.21          154.9          7.673          63.68          56.65          41.14
    0.8783              -32.66        -0.3348          69.98          50.76          -3.42          13.13          154.9          6.999          65.79          54.85          41.19
    0.8937              -32.13        -0.2919          70.95          50.38         -3.121          13.85          155.0          6.472          67.44          53.45          41.23
    0.9091              -31.72        -0.2582           71.7          50.08         -2.885          14.42          155.1          6.058          68.73          52.35          41.26
    0.9245              -31.39        -0.2314          72.31          49.84         -2.699          14.87          155.1          5.729          69.76          51.48          41.28
    0.9399              -31.13        -0.2099          72.79          49.64         -2.549          15.23          155.1          5.466          70.59          50.78           41.3
    0.9553              -30.92        -0.1925          73.18          49.49         -2.428          15.53          155.2          5.252          71.26          50.21          41.31
    0.9707              -30.74        -0.1783           73.5          49.36         -2.328          15.77          155.2          5.077           71.8          49.74          41.33
    0.9861               -30.6        -0.1665          73.76          49.25         -2.246          15.97          155.2          4.933          72.26          49.36          41.34
